<mxfile host="app.diagrams.net" agent="Mozilla/5.0 (Macintosh; Intel Mac OS X 10_15_7) AppleWebKit/537.36 (KHTML, like Gecko) Chrome/129.0.0.0 Safari/537.36" version="24.7.17">
  <diagram name="페이지-1" id="ApyMkSMjdnedh38KXJxK">
    <mxGraphModel dx="1156" dy="1378" grid="1" gridSize="10" guides="1" tooltips="1" connect="1" arrows="1" fold="1" page="1" pageScale="1" pageWidth="827" pageHeight="1169" math="0" shadow="0">
      <root>
        <mxCell id="0" />
        <mxCell id="1" parent="0" />
        <mxCell id="OhMJ6KK6m9Em_Wjlxh9e-1" value="" style="edgeStyle=none;curved=1;rounded=0;orthogonalLoop=1;jettySize=auto;html=1;fontSize=12;startSize=8;endSize=8;entryX=0;entryY=0.5;entryDx=0;entryDy=0;exitX=1;exitY=0.3333333333333333;exitDx=0;exitDy=0;exitPerimeter=0;fillColor=#d5e8d4;strokeColor=#82b366;" parent="1" source="OhMJ6KK6m9Em_Wjlxh9e-3" target="OhMJ6KK6m9Em_Wjlxh9e-6" edge="1">
          <mxGeometry relative="1" as="geometry" />
        </mxCell>
        <mxCell id="OhMJ6KK6m9Em_Wjlxh9e-2" value="" style="edgeStyle=none;curved=1;rounded=0;orthogonalLoop=1;jettySize=auto;html=1;fontSize=12;startSize=8;endSize=8;entryX=0;entryY=0.5;entryDx=0;entryDy=0;exitX=1;exitY=0.3333333333333333;exitDx=0;exitDy=0;exitPerimeter=0;fillColor=#d5e8d4;strokeColor=#82b366;" parent="1" source="OhMJ6KK6m9Em_Wjlxh9e-3" target="OhMJ6KK6m9Em_Wjlxh9e-8" edge="1">
          <mxGeometry relative="1" as="geometry">
            <Array as="points" />
          </mxGeometry>
        </mxCell>
        <mxCell id="OhMJ6KK6m9Em_Wjlxh9e-3" value="Professor" style="shape=umlActor;verticalLabelPosition=bottom;verticalAlign=top;html=1;outlineConnect=0;fillColor=#d5e8d4;strokeColor=#82b366;" parent="1" vertex="1">
          <mxGeometry x="-80" y="163" width="30" height="60" as="geometry" />
        </mxCell>
        <mxCell id="OhMJ6KK6m9Em_Wjlxh9e-4" value="수강생 열람" style="ellipse;whiteSpace=wrap;html=1;fillColor=#d5e8d4;strokeColor=#82b366;" parent="1" vertex="1">
          <mxGeometry x="85" y="143" width="120" height="80" as="geometry" />
        </mxCell>
        <mxCell id="OhMJ6KK6m9Em_Wjlxh9e-5" value="강의 과목 게시판&lt;div&gt;설정&lt;/div&gt;" style="ellipse;whiteSpace=wrap;html=1;fillColor=#d5e8d4;strokeColor=#82b366;" parent="1" vertex="1">
          <mxGeometry x="85" y="27" width="120" height="80" as="geometry" />
        </mxCell>
        <mxCell id="OhMJ6KK6m9Em_Wjlxh9e-6" value="로그인" style="ellipse;whiteSpace=wrap;html=1;fillColor=#d5e8d4;strokeColor=#82b366;" parent="1" vertex="1">
          <mxGeometry x="85" y="-82" width="120" height="80" as="geometry" />
        </mxCell>
        <mxCell id="OhMJ6KK6m9Em_Wjlxh9e-7" value="학생 진도 추적" style="ellipse;whiteSpace=wrap;html=1;fillColor=#d5e8d4;strokeColor=#82b366;" parent="1" vertex="1">
          <mxGeometry x="85" y="256" width="120" height="80" as="geometry" />
        </mxCell>
        <mxCell id="OhMJ6KK6m9Em_Wjlxh9e-8" value="학생 그룹 관리" style="ellipse;whiteSpace=wrap;html=1;fillColor=#d5e8d4;strokeColor=#82b366;" parent="1" vertex="1">
          <mxGeometry x="85" y="482" width="120" height="80" as="geometry" />
        </mxCell>
        <mxCell id="OhMJ6KK6m9Em_Wjlxh9e-9" value="비밀번호 확인" style="ellipse;whiteSpace=wrap;html=1;fillColor=#d5e8d4;strokeColor=#82b366;" parent="1" vertex="1">
          <mxGeometry x="292" y="-82" width="120" height="80" as="geometry" />
        </mxCell>
        <mxCell id="OhMJ6KK6m9Em_Wjlxh9e-10" value="" style="endArrow=classic;html=1;rounded=0;fontSize=12;startSize=8;endSize=8;curved=1;exitX=1;exitY=0.3333333333333333;exitDx=0;exitDy=0;exitPerimeter=0;entryX=0;entryY=0.5;entryDx=0;entryDy=0;fillColor=#d5e8d4;strokeColor=#82b366;" parent="1" source="OhMJ6KK6m9Em_Wjlxh9e-3" target="OhMJ6KK6m9Em_Wjlxh9e-5" edge="1">
          <mxGeometry width="50" height="50" relative="1" as="geometry">
            <mxPoint x="29" y="244" as="sourcePoint" />
            <mxPoint x="56" y="260" as="targetPoint" />
          </mxGeometry>
        </mxCell>
        <mxCell id="OhMJ6KK6m9Em_Wjlxh9e-11" value="" style="endArrow=classic;html=1;rounded=0;fontSize=12;startSize=8;endSize=8;curved=1;exitX=1;exitY=0.3333333333333333;exitDx=0;exitDy=0;exitPerimeter=0;entryX=0;entryY=0.5;entryDx=0;entryDy=0;fillColor=#d5e8d4;strokeColor=#82b366;" parent="1" source="OhMJ6KK6m9Em_Wjlxh9e-3" target="OhMJ6KK6m9Em_Wjlxh9e-4" edge="1">
          <mxGeometry width="50" height="50" relative="1" as="geometry">
            <mxPoint x="29" y="244" as="sourcePoint" />
            <mxPoint x="79" y="194" as="targetPoint" />
          </mxGeometry>
        </mxCell>
        <mxCell id="OhMJ6KK6m9Em_Wjlxh9e-12" value="" style="endArrow=classic;html=1;rounded=0;fontSize=12;startSize=8;endSize=8;curved=1;exitX=1;exitY=0.3333333333333333;exitDx=0;exitDy=0;exitPerimeter=0;entryX=0;entryY=0.5;entryDx=0;entryDy=0;fillColor=#d5e8d4;strokeColor=#82b366;" parent="1" source="OhMJ6KK6m9Em_Wjlxh9e-3" target="OhMJ6KK6m9Em_Wjlxh9e-7" edge="1">
          <mxGeometry width="50" height="50" relative="1" as="geometry">
            <mxPoint x="29" y="244" as="sourcePoint" />
            <mxPoint x="79" y="194" as="targetPoint" />
          </mxGeometry>
        </mxCell>
        <mxCell id="OhMJ6KK6m9Em_Wjlxh9e-13" value="아이디 확인" style="ellipse;whiteSpace=wrap;html=1;fillColor=#d5e8d4;strokeColor=#82b366;" parent="1" vertex="1">
          <mxGeometry x="292" y="-203" width="120" height="80" as="geometry" />
        </mxCell>
        <mxCell id="OhMJ6KK6m9Em_Wjlxh9e-14" value="include" style="endArrow=open;endSize=12;dashed=1;html=1;rounded=0;fontSize=12;curved=1;exitX=1;exitY=0.5;exitDx=0;exitDy=0;entryX=0;entryY=0.5;entryDx=0;entryDy=0;fillColor=#d5e8d4;strokeColor=#82b366;" parent="1" source="OhMJ6KK6m9Em_Wjlxh9e-6" target="OhMJ6KK6m9Em_Wjlxh9e-13" edge="1">
          <mxGeometry width="160" relative="1" as="geometry">
            <mxPoint x="209" y="-16" as="sourcePoint" />
            <mxPoint x="425" y="-96" as="targetPoint" />
          </mxGeometry>
        </mxCell>
        <mxCell id="OhMJ6KK6m9Em_Wjlxh9e-15" value="include" style="endArrow=open;endSize=12;dashed=1;html=1;rounded=0;fontSize=12;curved=1;entryX=0;entryY=0.5;entryDx=0;entryDy=0;fillColor=#d5e8d4;strokeColor=#82b366;" parent="1" target="OhMJ6KK6m9Em_Wjlxh9e-9" edge="1">
          <mxGeometry width="160" relative="1" as="geometry">
            <mxPoint x="209" y="-42" as="sourcePoint" />
            <mxPoint x="215" y="-32" as="targetPoint" />
          </mxGeometry>
        </mxCell>
        <mxCell id="OhMJ6KK6m9Em_Wjlxh9e-16" value="업로드" style="ellipse;whiteSpace=wrap;html=1;fillColor=#d5e8d4;strokeColor=#82b366;" parent="1" vertex="1">
          <mxGeometry x="292" y="27" width="120" height="80" as="geometry" />
        </mxCell>
        <mxCell id="OhMJ6KK6m9Em_Wjlxh9e-17" value="학생 정보 확인" style="ellipse;whiteSpace=wrap;html=1;fillColor=#d5e8d4;strokeColor=#82b366;" parent="1" vertex="1">
          <mxGeometry x="292" y="143" width="120" height="80" as="geometry" />
        </mxCell>
        <mxCell id="OhMJ6KK6m9Em_Wjlxh9e-18" value="학습 자료 열람&amp;nbsp;&lt;div&gt;기록 확인&lt;/div&gt;" style="ellipse;whiteSpace=wrap;html=1;fillColor=#d5e8d4;strokeColor=#82b366;" parent="1" vertex="1">
          <mxGeometry x="292" y="256" width="120" height="80" as="geometry" />
        </mxCell>
        <mxCell id="OhMJ6KK6m9Em_Wjlxh9e-19" value="과제 제출 여부&lt;div&gt;확인&lt;/div&gt;" style="ellipse;whiteSpace=wrap;html=1;fillColor=#d5e8d4;strokeColor=#82b366;" parent="1" vertex="1">
          <mxGeometry x="292" y="369" width="120" height="80" as="geometry" />
        </mxCell>
        <mxCell id="OhMJ6KK6m9Em_Wjlxh9e-20" value="그룹 별 과제 설정" style="ellipse;whiteSpace=wrap;html=1;fillColor=#d5e8d4;strokeColor=#82b366;" parent="1" vertex="1">
          <mxGeometry x="292" y="482" width="120" height="80" as="geometry" />
        </mxCell>
        <mxCell id="OhMJ6KK6m9Em_Wjlxh9e-21" value="그룹 별 성적 확인" style="ellipse;whiteSpace=wrap;html=1;fillColor=#d5e8d4;strokeColor=#82b366;" parent="1" vertex="1">
          <mxGeometry x="292" y="600" width="120" height="80" as="geometry" />
        </mxCell>
        <mxCell id="OhMJ6KK6m9Em_Wjlxh9e-22" value="include" style="endArrow=open;endSize=12;dashed=1;html=1;rounded=0;fontSize=12;curved=1;entryX=0;entryY=0.5;entryDx=0;entryDy=0;exitX=1;exitY=0.5;exitDx=0;exitDy=0;fillColor=#d5e8d4;strokeColor=#82b366;" parent="1" source="OhMJ6KK6m9Em_Wjlxh9e-5" target="OhMJ6KK6m9Em_Wjlxh9e-16" edge="1">
          <mxGeometry width="160" relative="1" as="geometry">
            <mxPoint x="219" y="-32" as="sourcePoint" />
            <mxPoint x="302" y="-32" as="targetPoint" />
          </mxGeometry>
        </mxCell>
        <mxCell id="OhMJ6KK6m9Em_Wjlxh9e-23" value="include" style="endArrow=open;endSize=12;dashed=1;html=1;rounded=0;fontSize=12;curved=1;entryX=0;entryY=0.5;entryDx=0;entryDy=0;exitX=1;exitY=0.5;exitDx=0;exitDy=0;fillColor=#d5e8d4;strokeColor=#82b366;" parent="1" source="OhMJ6KK6m9Em_Wjlxh9e-4" target="OhMJ6KK6m9Em_Wjlxh9e-17" edge="1">
          <mxGeometry width="160" relative="1" as="geometry">
            <mxPoint x="215" y="77" as="sourcePoint" />
            <mxPoint x="302" y="77" as="targetPoint" />
          </mxGeometry>
        </mxCell>
        <mxCell id="OhMJ6KK6m9Em_Wjlxh9e-24" value="include" style="endArrow=open;endSize=12;dashed=1;html=1;rounded=0;fontSize=12;curved=1;entryX=0;entryY=0.5;entryDx=0;entryDy=0;exitX=1;exitY=0.5;exitDx=0;exitDy=0;fillColor=#d5e8d4;strokeColor=#82b366;" parent="1" source="OhMJ6KK6m9Em_Wjlxh9e-7" target="OhMJ6KK6m9Em_Wjlxh9e-18" edge="1">
          <mxGeometry width="160" relative="1" as="geometry">
            <mxPoint x="215" y="175" as="sourcePoint" />
            <mxPoint x="302" y="175" as="targetPoint" />
          </mxGeometry>
        </mxCell>
        <mxCell id="OhMJ6KK6m9Em_Wjlxh9e-25" value="include" style="endArrow=open;endSize=12;dashed=1;html=1;rounded=0;fontSize=12;curved=1;entryX=0;entryY=0.5;entryDx=0;entryDy=0;exitX=1;exitY=0.5;exitDx=0;exitDy=0;fillColor=#d5e8d4;strokeColor=#82b366;" parent="1" source="OhMJ6KK6m9Em_Wjlxh9e-7" target="OhMJ6KK6m9Em_Wjlxh9e-19" edge="1">
          <mxGeometry width="160" relative="1" as="geometry">
            <mxPoint x="215" y="306" as="sourcePoint" />
            <mxPoint x="302" y="306" as="targetPoint" />
          </mxGeometry>
        </mxCell>
        <mxCell id="OhMJ6KK6m9Em_Wjlxh9e-26" value="include" style="endArrow=open;endSize=12;dashed=1;html=1;rounded=0;fontSize=12;curved=1;entryX=0;entryY=0.5;entryDx=0;entryDy=0;exitX=1;exitY=0.5;exitDx=0;exitDy=0;fillColor=#d5e8d4;strokeColor=#82b366;" parent="1" source="OhMJ6KK6m9Em_Wjlxh9e-8" target="OhMJ6KK6m9Em_Wjlxh9e-20" edge="1">
          <mxGeometry width="160" relative="1" as="geometry">
            <mxPoint x="225" y="293" as="sourcePoint" />
            <mxPoint x="312" y="293" as="targetPoint" />
          </mxGeometry>
        </mxCell>
        <mxCell id="OhMJ6KK6m9Em_Wjlxh9e-27" value="include" style="endArrow=open;endSize=12;dashed=1;html=1;rounded=0;fontSize=12;curved=1;entryX=0;entryY=0.5;entryDx=0;entryDy=0;exitX=1;exitY=0.5;exitDx=0;exitDy=0;fillColor=#d5e8d4;strokeColor=#82b366;" parent="1" source="OhMJ6KK6m9Em_Wjlxh9e-8" target="OhMJ6KK6m9Em_Wjlxh9e-21" edge="1">
          <mxGeometry width="160" relative="1" as="geometry">
            <mxPoint x="215" y="532" as="sourcePoint" />
            <mxPoint x="302" y="532" as="targetPoint" />
          </mxGeometry>
        </mxCell>
        <mxCell id="OhMJ6KK6m9Em_Wjlxh9e-28" value="강의자료" style="ellipse;whiteSpace=wrap;html=1;fillColor=#d5e8d4;strokeColor=#82b366;" parent="1" vertex="1">
          <mxGeometry x="532" y="27" width="120" height="80" as="geometry" />
        </mxCell>
        <mxCell id="OhMJ6KK6m9Em_Wjlxh9e-29" value="extend" style="endArrow=open;endSize=12;dashed=1;html=1;rounded=0;fontSize=12;curved=1;entryX=1;entryY=0.5;entryDx=0;entryDy=0;exitX=0;exitY=0.5;exitDx=0;exitDy=0;fillColor=#d5e8d4;strokeColor=#82b366;" parent="1" source="OhMJ6KK6m9Em_Wjlxh9e-28" target="OhMJ6KK6m9Em_Wjlxh9e-16" edge="1">
          <mxGeometry width="160" relative="1" as="geometry">
            <mxPoint x="219" y="-32" as="sourcePoint" />
            <mxPoint x="302" y="-32" as="targetPoint" />
          </mxGeometry>
        </mxCell>
        <mxCell id="OhMJ6KK6m9Em_Wjlxh9e-30" value="공지사항" style="ellipse;whiteSpace=wrap;html=1;fillColor=#d5e8d4;strokeColor=#82b366;" parent="1" vertex="1">
          <mxGeometry x="532" y="132" width="120" height="80" as="geometry" />
        </mxCell>
        <mxCell id="OhMJ6KK6m9Em_Wjlxh9e-31" value="extend" style="endArrow=open;endSize=12;dashed=1;html=1;rounded=0;fontSize=12;curved=1;entryX=1;entryY=0.5;entryDx=0;entryDy=0;exitX=0;exitY=0.5;exitDx=0;exitDy=0;fillColor=#d5e8d4;strokeColor=#82b366;" parent="1" source="OhMJ6KK6m9Em_Wjlxh9e-30" target="OhMJ6KK6m9Em_Wjlxh9e-16" edge="1">
          <mxGeometry width="160" relative="1" as="geometry">
            <mxPoint x="219" y="74" as="sourcePoint" />
            <mxPoint x="412" y="173" as="targetPoint" />
          </mxGeometry>
        </mxCell>
        <mxCell id="OhMJ6KK6m9Em_Wjlxh9e-32" value="녹화 강의" style="ellipse;whiteSpace=wrap;html=1;fillColor=#d5e8d4;strokeColor=#82b366;" parent="1" vertex="1">
          <mxGeometry x="532" y="237" width="120" height="80" as="geometry" />
        </mxCell>
        <mxCell id="OhMJ6KK6m9Em_Wjlxh9e-33" value="과제" style="ellipse;whiteSpace=wrap;html=1;fillColor=#d5e8d4;strokeColor=#82b366;" parent="1" vertex="1">
          <mxGeometry x="532" y="342" width="120" height="80" as="geometry" />
        </mxCell>
        <mxCell id="OhMJ6KK6m9Em_Wjlxh9e-34" value="퀴즈 및 시험" style="ellipse;whiteSpace=wrap;html=1;fillColor=#d5e8d4;strokeColor=#82b366;" parent="1" vertex="1">
          <mxGeometry x="532" y="447" width="120" height="80" as="geometry" />
        </mxCell>
        <mxCell id="OhMJ6KK6m9Em_Wjlxh9e-35" value="extend" style="endArrow=open;endSize=12;dashed=1;html=1;rounded=0;fontSize=12;curved=1;entryX=1;entryY=0.5;entryDx=0;entryDy=0;exitX=0;exitY=0.5;exitDx=0;exitDy=0;fillColor=#d5e8d4;strokeColor=#82b366;" parent="1" source="OhMJ6KK6m9Em_Wjlxh9e-32" target="OhMJ6KK6m9Em_Wjlxh9e-16" edge="1">
          <mxGeometry width="160" relative="1" as="geometry">
            <mxPoint x="542" y="182" as="sourcePoint" />
            <mxPoint x="422" y="77" as="targetPoint" />
          </mxGeometry>
        </mxCell>
        <mxCell id="OhMJ6KK6m9Em_Wjlxh9e-36" value="extend" style="endArrow=open;endSize=12;dashed=1;html=1;rounded=0;fontSize=12;curved=1;entryX=1;entryY=0.5;entryDx=0;entryDy=0;exitX=0;exitY=0.5;exitDx=0;exitDy=0;fillColor=#d5e8d4;strokeColor=#82b366;" parent="1" source="OhMJ6KK6m9Em_Wjlxh9e-33" target="OhMJ6KK6m9Em_Wjlxh9e-16" edge="1">
          <mxGeometry width="160" relative="1" as="geometry">
            <mxPoint x="542" y="287" as="sourcePoint" />
            <mxPoint x="422" y="77" as="targetPoint" />
          </mxGeometry>
        </mxCell>
        <mxCell id="OhMJ6KK6m9Em_Wjlxh9e-37" value="extend" style="endArrow=open;endSize=12;dashed=1;html=1;rounded=0;fontSize=12;curved=1;entryX=1;entryY=0.5;entryDx=0;entryDy=0;exitX=0;exitY=0.5;exitDx=0;exitDy=0;fillColor=#d5e8d4;strokeColor=#82b366;" parent="1" source="OhMJ6KK6m9Em_Wjlxh9e-34" target="OhMJ6KK6m9Em_Wjlxh9e-16" edge="1">
          <mxGeometry width="160" relative="1" as="geometry">
            <mxPoint x="542" y="392" as="sourcePoint" />
            <mxPoint x="422" y="77" as="targetPoint" />
          </mxGeometry>
        </mxCell>
        <mxCell id="OhMJ6KK6m9Em_Wjlxh9e-38" value="퀴즈/시험 채점 및&lt;div&gt;피드백 제공&lt;/div&gt;" style="ellipse;whiteSpace=wrap;html=1;fillColor=#d5e8d4;strokeColor=#82b366;" parent="1" vertex="1">
          <mxGeometry x="772" y="447" width="120" height="80" as="geometry" />
        </mxCell>
        <mxCell id="OhMJ6KK6m9Em_Wjlxh9e-39" value="과제 채점 및&amp;nbsp;&lt;div&gt;피드백 제공&lt;/div&gt;" style="ellipse;whiteSpace=wrap;html=1;fillColor=#d5e8d4;strokeColor=#82b366;" parent="1" vertex="1">
          <mxGeometry x="772" y="342" width="120" height="80" as="geometry" />
        </mxCell>
        <mxCell id="OhMJ6KK6m9Em_Wjlxh9e-40" value="extend" style="endArrow=open;endSize=12;dashed=1;html=1;rounded=0;fontSize=12;curved=1;entryX=1;entryY=0.5;entryDx=0;entryDy=0;exitX=0;exitY=0.5;exitDx=0;exitDy=0;fillColor=#d5e8d4;strokeColor=#82b366;" parent="1" source="OhMJ6KK6m9Em_Wjlxh9e-39" target="OhMJ6KK6m9Em_Wjlxh9e-33" edge="1">
          <mxGeometry width="160" relative="1" as="geometry">
            <mxPoint x="542" y="392" as="sourcePoint" />
            <mxPoint x="422" y="77" as="targetPoint" />
          </mxGeometry>
        </mxCell>
        <mxCell id="OhMJ6KK6m9Em_Wjlxh9e-41" value="extend" style="endArrow=open;endSize=12;dashed=1;html=1;rounded=0;fontSize=12;curved=1;entryX=1;entryY=0.5;entryDx=0;entryDy=0;exitX=0;exitY=0.5;exitDx=0;exitDy=0;fillColor=#d5e8d4;strokeColor=#82b366;" parent="1" source="OhMJ6KK6m9Em_Wjlxh9e-38" target="OhMJ6KK6m9Em_Wjlxh9e-34" edge="1">
          <mxGeometry width="160" relative="1" as="geometry">
            <mxPoint x="552" y="402" as="sourcePoint" />
            <mxPoint x="432" y="87" as="targetPoint" />
          </mxGeometry>
        </mxCell>
        <mxCell id="OhMJ6KK6m9Em_Wjlxh9e-42" value="그룹 성과 평가" style="ellipse;whiteSpace=wrap;html=1;fillColor=#d5e8d4;strokeColor=#82b366;" parent="1" vertex="1">
          <mxGeometry x="532" y="600" width="120" height="80" as="geometry" />
        </mxCell>
        <mxCell id="OhMJ6KK6m9Em_Wjlxh9e-43" value="extend" style="endArrow=open;endSize=12;dashed=1;html=1;rounded=0;fontSize=12;curved=1;entryX=1;entryY=0.5;entryDx=0;entryDy=0;exitX=0;exitY=0.5;exitDx=0;exitDy=0;fillColor=#d5e8d4;strokeColor=#82b366;" parent="1" source="OhMJ6KK6m9Em_Wjlxh9e-42" target="OhMJ6KK6m9Em_Wjlxh9e-21" edge="1">
          <mxGeometry width="160" relative="1" as="geometry">
            <mxPoint x="782" y="497" as="sourcePoint" />
            <mxPoint x="662" y="497" as="targetPoint" />
          </mxGeometry>
        </mxCell>
        <mxCell id="IhSw4NM22VzTBqwcN2Kw-1" value="대학 행정 관리자&lt;div&gt;&lt;br&gt;&lt;/div&gt;" style="shape=umlActor;verticalLabelPosition=bottom;verticalAlign=top;html=1;outlineConnect=0;fillColor=#d5e8d4;strokeColor=#82b366;" vertex="1" parent="1">
          <mxGeometry x="-70" y="720" width="30" height="60" as="geometry" />
        </mxCell>
      </root>
    </mxGraphModel>
  </diagram>
</mxfile>
